<svg width="30" height="30" viewBox="0 0 30 30" fill="none" xmlns="http://www.w3.org/2000/svg">
    <path d="M18.188 15.275a6.15 6.15 0 0 0 2.125-4.65 6.25 6.25 0 0 0-12.5 0A6.15 6.15 0 0 0 10 15.275a10 10 0 0 0-5.875 9.1 1.25 1.25 0 0 0 2.5 0 7.5 7.5 0 0 1 15 0 1.25 1.25 0 0 0 2.5 0 10 10 0 0 0-5.938-9.1zm-4.125-.9a3.75 3.75 0 1 1 0-7.5 3.75 3.75 0 0 1 0 7.5zm10.624-6.25a1.25 1.25 0 0 0-1.25 1.25v2.5a1.25 1.25 0 0 0 2.5 0v-2.5a1.25 1.25 0 0 0-1.25-1.25zm-.937 6.613c-.228.239-.358.556-.363.887a1.25 1.25 0 0 0 .363.887c.122.11.261.2.413.263a1.175 1.175 0 0 0 .95 0 1.124 1.124 0 0 0 .675-.675 1.05 1.05 0 0 0 .1-.475 1.25 1.25 0 0 0-2.138-.887z" fill="#65558F"/>
</svg>
