<svg width="33" height="30" viewBox="0 0 33 30" fill="none" xmlns="http://www.w3.org/2000/svg">
    <path d="M16.047 27.5c-.313 0-.58-.083-.803-.25a1.526 1.526 0 0 1-.501-.656 16.875 16.875 0 0 0-1.605-3.282c-.624-1.02-1.504-2.218-2.64-3.593-1.138-1.375-2.062-2.688-2.776-3.938-.69-1.25-1.036-2.76-1.036-4.531 0-2.438.903-4.5 2.708-6.188C11.22 3.354 13.439 2.5 16.047 2.5c2.607 0 4.813.854 6.619 2.563 1.827 1.687 2.741 3.75 2.741 6.187 0 1.896-.39 3.48-1.17 4.75a32.734 32.734 0 0 1-2.641 3.719c-1.204 1.5-2.117 2.75-2.741 3.75a17.11 17.11 0 0 0-1.505 3.125c-.111.291-.29.52-.535.687-.223.146-.479.219-.768.219zm0-4.469a22.98 22.98 0 0 1 1.27-2.093c.49-.688 1.203-1.605 2.14-2.75.958-1.167 1.738-2.24 2.34-3.22.623-1 .936-2.239.936-3.718 0-1.73-.658-3.198-1.973-4.406C19.467 5.614 17.896 5 16.047 5c-1.85 0-3.433.615-4.748 1.844C10.007 8.052 9.36 9.52 9.36 11.25c0 1.48.301 2.719.903 3.719.624.979 1.415 2.052 2.374 3.219.936 1.145 1.638 2.062 2.106 2.75.49.687.925 1.385 1.304 2.093zm0-8.656c.936 0 1.727-.302 2.373-.906.646-.604.97-1.344.97-2.219 0-.875-.324-1.615-.97-2.219-.646-.604-1.438-.906-2.373-.906-.937 0-1.728.302-2.374.906-.646.604-.97 1.344-.97 2.219 0 .875.324 1.615.97 2.219.646.604 1.438.906 2.374.906z" fill="gray" fill-opacity=".55"/>
</svg>
