<svg width="24" height="24" viewBox="0 0 32 30" fill="none" xmlns="http://www.w3.org/2000/svg">
    <path d="M16 15c-1.467 0-2.723-.49-3.767-1.469-1.044-.979-1.567-2.156-1.567-3.531s.523-2.552 1.567-3.531C13.277 5.489 14.533 5 16 5c1.466 0 2.722.49 3.766 1.469 1.045.979 1.567 2.156 1.567 3.531s-.522 2.552-1.567 3.531C18.722 14.511 17.466 15 16 15zM5.333 25v-3.5c0-.708.194-1.36.583-1.953a3.8 3.8 0 0 1 1.55-1.36 20.653 20.653 0 0 1 4.2-1.453A19.512 19.512 0 0 1 16 16.25c1.466 0 2.91.162 4.333.484 1.422.323 2.822.808 4.2 1.453a3.8 3.8 0 0 1 1.55 1.36c.389.594.583 1.245.583 1.953V25H5.333zM8 22.5h16v-1c0-.23-.061-.438-.184-.625a1.264 1.264 0 0 0-.483-.438 18.125 18.125 0 0 0-3.633-1.265 16.445 16.445 0 0 0-7.4 0 18.126 18.126 0 0 0-3.634 1.265c-.2.105-.36.25-.483.438A1.12 1.12 0 0 0 8 21.5v1zm8-10c.733 0 1.36-.245 1.883-.734.522-.49.783-1.079.783-1.766 0-.688-.26-1.276-.783-1.766A2.656 2.656 0 0 0 16 7.5c-.734 0-1.361.245-1.884.734-.522.49-.783 1.079-.783 1.766 0 .688.261 1.276.783 1.766.523.49 1.15.734 1.884.734z" fill="#65558F"/>
</svg>
