<svg xmlns="http://www.w3.org/2000/svg" xmlns:xlink="http://www.w3.org/1999/xlink" version="1.1" width="1000" height="1000" viewBox="0 0 1000 1000" xml:space="preserve">
<desc>Created with Fabric.js 3.5.0</desc>
<defs>
</defs>
<rect x="0" y="0" width="100%" height="100%" fill="#ffffff"/>
<g transform="matrix(15.674 0 0 15.674 500.0005 500.0003)" id="515385">
<g style="" vector-effect="non-scaling-stroke">
		<g transform="matrix(1 0 0 1 4.718 0)">
<path style="stroke: none; stroke-width: 1; stroke-dasharray: none; stroke-linecap: butt; stroke-dashoffset: 0; stroke-linejoin: miter; stroke-miterlimit: 4; is-custom-font: none; font-file-url: none; fill: rgb(101,85,143); fill-rule: nonzero; opacity: 1;" transform=" translate(-33.718, -16.5)" d="M 9.435 33 v -5.773 h 18.798 V 33 z M 35.911 33 v -5.773 h 22.09 V 33 z M 30.098 6.757 L 28.232 3.38 L 58 0 v 6.757 H 30.098 z M 9.435 9.12 V 3.345 h 15.14 V 9.12 z" stroke-linecap="round"/>
</g>
		<g transform="matrix(1 0 0 1 -8.157 1.673)">
<path style="stroke: none; stroke-width: 1; stroke-dasharray: none; stroke-linecap: butt; stroke-dashoffset: 0; stroke-linejoin: miter; stroke-miterlimit: 4; is-custom-font: none; font-file-url: none; fill: rgb(101,85,143); fill-rule: nonzero; opacity: 1;" transform=" translate(-20.843, -18.173)" d="M 15.046 30.113 L 9.472 33 L 0.002 18.286 L 5.576 15.4 z M 41.684 29.972 l -5.75 2.977 L 18.798 6.323 l 5.749 -2.977 z" stroke-linecap="round"/>
</g>
		<g transform="matrix(1 0 0 1 0.001 -4.175)">
<path style="stroke: none; stroke-width: 1; stroke-dasharray: none; stroke-linecap: butt; stroke-dashoffset: 0; stroke-linejoin: miter; stroke-miterlimit: 4; is-custom-font: none; font-file-url: none; fill: rgb(101,85,143); fill-rule: nonzero; opacity: 1;" transform=" translate(-29.001, -12.325)" d="M 5.576 20.928 L 0.002 18.042 l 9.47 -14.714 l 5.574 2.887 z M 44.308 21.322 a 4.592 4.592 0 1 1 0 -9.185 H 58 v 9.185 H 44.308 z" stroke-linecap="round"/>
</g>
</g>
</g>
</svg>