<svg width="58" height="33" viewBox="0 0 58 33" fill="none" xmlns="http://www.w3.org/2000/svg">
    <path fill="snow" d="M9.435 33v-5.773h18.798V33zM35.911 33v-5.773h22.09V33zM30.098 6.757 28.232 3.38 58 0v6.757H30.098zM9.435 9.12V3.345h15.14V9.12z"/>
    <path fill="snow" d="M15.046 30.113 9.472 33 .002 18.286 5.576 15.4zM41.684 29.972l-5.75 2.977L18.798 6.323l5.749-2.977z"/>
    <path fill="snow" d="M5.576 20.928.002 18.042l9.47-14.714 5.574 2.887zM44.308 21.322a4.592 4.592 0 1 1 0-9.185H58v9.185H44.308z"/>
</svg>
